<svg xmlns="http://www.w3.org/2000/svg" viewBox="0 0 800 480">
  <g transform="translate(0,10)" stroke="#184E93" stroke-width="10" stroke-linecap="round" stroke-linejoin="round" fill="none">
    <path d="M230 220 c-28-30 0-80 42-86 c20-30 64-46 104-18 c36-26 88-18 118 12 c44-16 80 10 94 42 c36 8 48 34 34 70 c18 18 10 56-28 66 c-6 18-42 22-62 12 c-18 24-56 30-86 10 c-34 28-94 22-128-12 c-30 36-84 28-102-10z" />
    <path d="M300 200 c30-10 50-6 80 0" />
    <path d="M360 170 c20-18 46-18 72-2" />
    <path d="M410 220 c10 8 30 8 46 0" />
    <path d="M360 210 q10 12 30 0" />
    <path d="M460 210 q10 12 30 0" />
    <path d="M400 240 q25 20 40 0" />
    <path d="M260 270 c40 20 70 8 110-8" />
    <path d="M355 262 c-8 6 -18 6 -26 0" stroke="#184E93" fill="#184E93" />
    <path d="M540 270 c-40 20 -70 8 -110-8" />
    <path d="M465 262 c8 6 18 6 26 0" stroke="#184E93" fill="#184E93" />
    <path d="M380 300 c6 40 18 66 36 86" />
    <path d="M440 300 c-10 36 -24 60 -40 76" />
    <path d="M412 382 c-6 6 -16 10 -26 8 c-6-1 -10-6 -9-12 c2-8 12-16 22-14 c9 1 18 6 13 18z"
          fill="#184E93" stroke="#184E93" />
    <path d="M468 372 c14 6 26 4 36-2 c6-4 10-2 14 2 c4 6 2 14 -8 18 c-12 6 -30 8 -44 -2 c-8-6 -4-18 2-18z"
          fill="#184E93" stroke="#184E93" />
  </g>
</svg>
